<?xml version="1.0" encoding="UTF-8" standalone="no"?>
<!DOCTYPE svg PUBLIC "-//W3C//DTD SVG 1.1//EN" "http://www.w3.org/Graphics/SVG/1.1/DTD/svg11.dtd">
<svg xmlns="http://www.w3.org/2000/svg" version="1.1" viewBox="0.00 0.00 512.00 512.00">
<path stroke="#74604b" stroke-width="2.00" fill="none" stroke-linecap="butt" vector-effect="non-scaling-stroke" d="
  M 227.23 259.51
  L 322.54 259.51
  Q 323.08 259.51 323.08 258.96
  L 323.07 240.27
  Q 323.07 239.71 322.51 239.71
  L 227.21 239.71
  Q 226.72 239.71 226.72 239.21
  L 226.72 134.02
  Q 226.72 133.53 227.21 133.53
  Q 260.48 133.46 293.75 133.54
  C 302.74 133.57 311.41 135.13 317.86 141.50
  C 328.68 152.20 329.02 166.66 330.83 182.92
  A 0.67 0.66 86.6 0 0 331.49 183.51
  L 351.47 183.51
  A 0.41 0.41 0.0 0 0 351.88 183.09
  L 349.88 113.64
  A 0.37 0.37 0.0 0 0 349.51 113.28
  L 148.76 113.28
  Q 148.17 113.28 148.17 113.87
  L 148.16 129.97
  A 0.49 0.48 -2.2 0 0 148.69 130.45
  Q 160.71 129.47 171.87 133.30
  C 178.46 135.57 182.45 138.92 184.31 145.49
  Q 186.25 152.35 186.24 159.50
  Q 186.18 257.25 186.18 355.00
  C 186.18 361.93 185.09 370.54 179.62 375.31
  C 172.62 381.41 157.57 382.62 148.73 382.07
  A 0.54 0.54 0.0 0 0 148.16 382.61
  L 148.17 398.46
  A 0.54 0.54 0.0 0 0 148.71 399.00
  L 362.21 399.00
  A 0.48 0.48 0.0 0 0 362.69 398.54
  L 365.48 329.50
  Q 365.50 329.00 365.00 329.00
  L 345.00 329.00
  Q 344.48 329.00 344.40 329.52
  C 341.98 345.08 340.66 364.23 325.46 373.83
  C 319.77 377.42 311.75 378.89 305.23 378.95
  Q 279.26 379.16 227.18 378.93
  Q 226.72 378.93 226.72 378.46
  L 226.72 260.02
  Q 226.72 259.51 227.23 259.51"
/>
<path fill="#2b2b2b" d="
  M 486.3063 425.5783
  A 60.03 60.03 0.0 0 1 426.3812 485.7130
  L 86.4217 486.3063
  A 60.03 60.03 0.0 0 1 26.2870 426.3812
  L 25.6937 86.4217
  A 60.03 60.03 0.0 0 1 85.6188 26.2870
  L 425.5783 25.6937
  A 60.03 60.03 0.0 0 1 485.7130 85.6188
  L 486.3063 425.5783
  Z
  M 227.23 259.51
  L 322.54 259.51
  Q 323.08 259.51 323.08 258.96
  L 323.07 240.27
  Q 323.07 239.71 322.51 239.71
  L 227.21 239.71
  Q 226.72 239.71 226.72 239.21
  L 226.72 134.02
  Q 226.72 133.53 227.21 133.53
  Q 260.48 133.46 293.75 133.54
  C 302.74 133.57 311.41 135.13 317.86 141.50
  C 328.68 152.20 329.02 166.66 330.83 182.92
  A 0.67 0.66 86.6 0 0 331.49 183.51
  L 351.47 183.51
  A 0.41 0.41 0.0 0 0 351.88 183.09
  L 349.88 113.64
  A 0.37 0.37 0.0 0 0 349.51 113.28
  L 148.76 113.28
  Q 148.17 113.28 148.17 113.87
  L 148.16 129.97
  A 0.49 0.48 -2.2 0 0 148.69 130.45
  Q 160.71 129.47 171.87 133.30
  C 178.46 135.57 182.45 138.92 184.31 145.49
  Q 186.25 152.35 186.24 159.50
  Q 186.18 257.25 186.18 355.00
  C 186.18 361.93 185.09 370.54 179.62 375.31
  C 172.62 381.41 157.57 382.62 148.73 382.07
  A 0.54 0.54 0.0 0 0 148.16 382.61
  L 148.17 398.46
  A 0.54 0.54 0.0 0 0 148.71 399.00
  L 362.21 399.00
  A 0.48 0.48 0.0 0 0 362.69 398.54
  L 365.48 329.50
  Q 365.50 329.00 365.00 329.00
  L 345.00 329.00
  Q 344.48 329.00 344.40 329.52
  C 341.98 345.08 340.66 364.23 325.46 373.83
  C 319.77 377.42 311.75 378.89 305.23 378.95
  Q 279.26 379.16 227.18 378.93
  Q 226.72 378.93 226.72 378.46
  L 226.72 260.02
  Q 226.72 259.51 227.23 259.51
  Z"
/>
<path fill="#bc956a" d="
  M 226.72 260.02
  L 226.72 378.46
  Q 226.72 378.93 227.18 378.93
  Q 279.26 379.16 305.23 378.95
  C 311.75 378.89 319.77 377.42 325.46 373.83
  C 340.66 364.23 341.98 345.08 344.40 329.52
  Q 344.48 329.00 345.00 329.00
  L 365.00 329.00
  Q 365.50 329.00 365.48 329.50
  L 362.69 398.54
  A 0.48 0.48 0.0 0 1 362.21 399.00
  L 148.71 399.00
  A 0.54 0.54 0.0 0 1 148.17 398.46
  L 148.16 382.61
  A 0.54 0.54 0.0 0 1 148.73 382.07
  C 157.57 382.62 172.62 381.41 179.62 375.31
  C 185.09 370.54 186.18 361.93 186.18 355.00
  Q 186.18 257.25 186.24 159.50
  Q 186.25 152.35 184.31 145.49
  C 182.45 138.92 178.46 135.57 171.87 133.30
  Q 160.71 129.47 148.69 130.45
  A 0.49 0.48 -2.2 0 1 148.16 129.97
  L 148.17 113.87
  Q 148.17 113.28 148.76 113.28
  L 349.51 113.28
  A 0.37 0.37 0.0 0 1 349.88 113.64
  L 351.88 183.09
  A 0.41 0.41 0.0 0 1 351.47 183.51
  L 331.49 183.51
  A 0.67 0.66 86.6 0 1 330.83 182.92
  C 329.02 166.66 328.68 152.20 317.86 141.50
  C 311.41 135.13 302.74 133.57 293.75 133.54
  Q 260.48 133.46 227.21 133.53
  Q 226.72 133.53 226.72 134.02
  L 226.72 239.21
  Q 226.72 239.71 227.21 239.71
  L 322.51 239.71
  Q 323.07 239.71 323.07 240.27
  L 323.08 258.96
  Q 323.08 259.51 322.54 259.51
  L 227.23 259.51
  Q 226.72 259.51 226.72 260.02
  Z"
/>
</svg>
